<svg id="Layer_1" data-name="Layer 1" xmlns="http://www.w3.org/2000/svg" viewBox="0 0 110.38 24.89"><defs><style>.cls-1{fill:#3b3f3e;fill-rule:evenodd;}</style></defs><title>dtale-logo</title><path class="cls-1" d="M130.41,44.3h10.53a26.46,26.46,0,0,1,3.39,0,11.85,11.85,0,0,1,9.94,12v.81a11.86,11.86,0,0,1-9.94,12l-.26,0a29.54,29.54,0,0,1-3.13,0H130.41V44.3Zm9.26,9.39v5.93h3.4c2.53-.72,2.57-4.72-.12-5.93Z" transform="translate(-130.41 -44.26)"/><polygon class="cls-1" points="24.05 0.07 44.33 0.07 44.33 8.79 38.84 8.79 38.84 24.84 29.73 24.84 29.73 8.79 24.05 8.79 24.05 0.07"/><polygon class="cls-1" points="58.4 24.84 55.96 17.91 51.04 17.91 53.16 9.97 49.72 0.19 40.03 24.84 58.4 24.84"/><polygon class="cls-1" points="69.04 24.84 59.14 24.77 50.28 0.12 59.07 0.12 69.04 24.84"/><polygon class="cls-1" points="69.87 0.05 78.87 0.05 78.87 16.74 88.29 16.74 88.29 24.84 78.87 24.84 75.76 24.84 69.87 24.84 69.87 0.05"/><polygon class="cls-1" points="89.26 0.19 110.38 0.19 110.38 8.22 98.4 8.22 98.4 9.19 110.38 9.19 110.38 15.84 98.4 15.84 98.4 16.81 110.38 16.81 110.38 24.77 89.26 24.77 89.26 0.19"/></svg>