<svg id="Layer_1" data-name="Layer 1" xmlns="http://www.w3.org/2000/svg" xmlns:xlink="http://www.w3.org/1999/xlink" viewBox="0 0 197.46 179.88"><defs><style>.cls-1{fill:#ffc97f;}.cls-2{fill:#e07963;}.cls-3{fill:#fff;}.cls-4{clip-path:url(#clip-path);}.cls-11,.cls-5,.cls-7{fill:none;}.cls-11,.cls-5,.cls-7,.cls-8{stroke:#212950;stroke-linejoin:round;}.cls-5,.cls-7{stroke-width:4px;}.cls-6{fill:#d36c5b;}.cls-11,.cls-7,.cls-8{stroke-linecap:round;}.cls-10,.cls-8{fill:#a9dbc0;}.cls-11,.cls-8{stroke-width:2px;}.cls-9{fill:#ddf2da;}</style><clipPath id="clip-path" transform="translate(-861.27 -280.65)"><polygon class="cls-1" points="990.27 436.24 863.27 421.24 863.27 296.83 990.27 311.83 990.27 436.24"/></clipPath></defs><title>icon04</title><polygon class="cls-1" points="2.12 140.59 3.38 163.53 12.62 140.59 2.12 140.59"/><polygon class="cls-1" points="128.03 155.59 127.49 178.53 117.52 155.59 128.03 155.59"/><polygon class="cls-1" points="157.2 138.81 156.67 153.56 151.47 142.87 157.2 138.81"/><polygon class="cls-1" points="129 31.19 3.38 16.19 31.03 2 155.87 17 129 31.19"/><polygon class="cls-2" points="157.93 137.84 129 155.59 129 31.19 157.93 17 157.93 137.84"/><path class="cls-3" d="M990.57,425.83h0a118.39,118.39,0,0,0,5.63-36.07V322.91a11.67,11.67,0,0,1,6.72-10.56l.75-.35a20.89,20.89,0,0,0,10.94-12.21h0l-25.34,11Z" transform="translate(-861.27 -280.65)"/><polygon class="cls-1" points="129 155.59 2 140.59 2 16.19 129 31.19 129 155.59"/><g class="cls-4"><path class="cls-3" d="M862.27,390.34l1.38-4.74c3.06-4.39,4-5.83,4-11.18h0c0-2.08,2.3-3.61,4.38-3.41l61.05,5.89a51.11,51.11,0,0,0,22.5-2.85h0l-93.18-9.81-.12,26.1" transform="translate(-861.27 -280.65)"/></g><path class="cls-3" d="M862.27,319.23l.1-.11c2.28,6,5.27-8.61,5.27-13.66h0a2.8,2.8,0,0,1,3.1-2.78l55.07,5.95a44.25,44.25,0,0,0,21.5-3h0l-85-10.77Z" transform="translate(-861.27 -280.65)"/><path class="cls-5" d="M1047.81,285.16s-.56,9.67-8.64,10c8.08-.32,8.64,9.36,8.64,9.36s0-9.36,8.92-9.68C1048.37,295.46,1047.81,285.16,1047.81,285.16Z" transform="translate(-861.27 -280.65)"/><path class="cls-5" d="M1035.8,322.9s-.56,9.68-8.64,10c8.08-.31,8.64,9.37,8.64,9.37s0-9.37,8.91-9.68C1036.35,333.2,1035.8,322.9,1035.8,322.9Z" transform="translate(-861.27 -280.65)"/><polygon class="cls-5" points="128.9 31.19 2 16.19 31.03 2 157.93 17 128.9 31.19"/><polygon class="cls-5" points="129 155.59 2 140.59 2 16.19 129 31.19 129 155.59"/><line class="cls-5" x1="2" y1="50.82" x2="129" y2="65.82"/><path class="cls-6" d="M999.59,431s-.77-8.18,3.08-9.33-.59-11.22,5.33-18.63,9.44-5.92,5-13-.43-25.19,2.32-40,3.86-29.45,3.86-29.45v98.93L999.59,431" transform="translate(-861.27 -280.65)"/><line class="cls-5" x1="2" y1="84.68" x2="129" y2="99.68"/><line class="cls-7" x1="54.51" y1="110.22" x2="67.77" y2="111.79"/><line class="cls-7" x1="54.51" y1="74.22" x2="67.77" y2="75.79"/><line class="cls-7" x1="54.51" y1="41.22" x2="67.77" y2="42.79"/><polyline class="cls-5" points="157.93 17 157.93 137.84 129 155.59"/><polyline class="cls-5" points="2 140.99 2 162.88 5.08 162.88 12.74 140.99"/><polyline class="cls-5" points="128.85 155.99 128.85 177.88 125.77 177.88 118.11 155.99"/><polyline class="cls-5" points="157.93 130.63 157.93 152.52 154.84 152.52 151.01 141.57"/><polygon class="cls-8" points="116.61 47.28 123.37 49.07 117.25 72.11 114.94 67.19 110.5 70.32 116.61 47.28"/><polygon class="cls-8" points="130.69 48.29 123.75 49.1 126.49 72.78 129.48 68.23 133.44 71.97 130.69 48.29"/><path class="cls-9" d="M989.65,299.78h0a2.77,2.77,0,0,0,4.23,1.72h0a2.77,2.77,0,0,1,4.06,3.42h0a2.77,2.77,0,0,0,2.41,3.88h0a2.77,2.77,0,0,1,1.28,5.15h0a2.77,2.77,0,0,0-.33,4.56h0a2.76,2.76,0,0,1-2,4.91h0a2.77,2.77,0,0,0-2.95,3.49h0a2.77,2.77,0,0,1-4.5,2.81h0a2.77,2.77,0,0,0-4.44,1.09h0a2.76,2.76,0,0,1-5.29-.38h0a2.77,2.77,0,0,0-4.23-1.72h0a2.77,2.77,0,0,1-4.06-3.42h0a2.77,2.77,0,0,0-2.41-3.88h0a2.76,2.76,0,0,1-1.27-5.15h0a2.77,2.77,0,0,0,.33-4.56h0a2.76,2.76,0,0,1,2-4.91h0a2.77,2.77,0,0,0,2.94-3.49h0a2.77,2.77,0,0,1,4.51-2.81h0a2.76,2.76,0,0,0,4.43-1.09h0A2.76,2.76,0,0,1,989.65,299.78Z" transform="translate(-861.27 -280.65)"/><circle class="cls-10" cx="124.61" cy="34.46" r="11.44"/><path class="cls-3" d="M995.82,316.84a12.37,12.37,0,0,1-1.52,5.1,11,11,0,0,0-6.74-17.68A12.39,12.39,0,0,1,995.82,316.84Z" transform="translate(-861.27 -280.65)"/><circle class="cls-11" cx="124.61" cy="34.46" r="11.44"/><path class="cls-11" d="M989.65,299.78h0a2.77,2.77,0,0,0,4.23,1.72h0a2.77,2.77,0,0,1,4.06,3.42h0a2.77,2.77,0,0,0,2.41,3.88h0a2.77,2.77,0,0,1,1.28,5.15h0a2.77,2.77,0,0,0-.33,4.56h0a2.76,2.76,0,0,1-2,4.91h0a2.77,2.77,0,0,0-2.95,3.49h0a2.77,2.77,0,0,1-4.5,2.81h0a2.77,2.77,0,0,0-4.44,1.09h0a2.76,2.76,0,0,1-5.29-.38h0a2.77,2.77,0,0,0-4.23-1.72h0a2.77,2.77,0,0,1-4.06-3.42h0a2.77,2.77,0,0,0-2.41-3.88h0a2.76,2.76,0,0,1-1.27-5.15h0a2.77,2.77,0,0,0,.33-4.56h0a2.76,2.76,0,0,1,2-4.91h0a2.77,2.77,0,0,0,2.94-3.49h0a2.77,2.77,0,0,1,4.51-2.81h0a2.76,2.76,0,0,0,4.43-1.09h0A2.76,2.76,0,0,1,989.65,299.78Z" transform="translate(-861.27 -280.65)"/></svg>