<svg id="Layer_1" data-name="Layer 1" xmlns="http://www.w3.org/2000/svg" viewBox="0 0 214.95 175.9"><defs><style>.cls-1{fill:#a1b2af;}.cls-2{fill:#d3e5e2;}.cls-11,.cls-3{fill:none;stroke:#212950;stroke-width:4px;}.cls-3{stroke-linejoin:round;}.cls-4{fill:#212950;}.cls-5{fill:#ffc97f;}.cls-6{fill:#fff;}.cls-7{fill:#e07963;}.cls-8{fill:#d86956;}.cls-9{fill:#ddf2da;}.cls-10{fill:#a9dbc0;}.cls-11{stroke-miterlimit:10;}</style></defs><title>icon03</title><path class="cls-1" d="M881.43,446.81s-7.5-3.9-7.4-11.16c.05-3.73,4.84-.65,4.84-.65S879.81,445.84,881.43,446.81Z" transform="translate(-852.52 -282.36)"/><path class="cls-2" d="M878.46,430.75l10.1-4.64s5.1,17.37-4.38,19.52C877.63,447.12,878.46,430.75,878.46,430.75Z" transform="translate(-852.52 -282.36)"/><path class="cls-3" d="M888.56,426.11a15.73,15.73,0,0,1,1.47,9.08c-.58,5.86-3.42,10.33-6.34,10s-4.83-5.38-4.26-11.24a20.87,20.87,0,0,1,.55-3.12" transform="translate(-852.52 -282.36)"/><path class="cls-3" d="M874.22,433.29c-.58,5.86.51,11.47,4.52,12.51,0,0,7.83,2.95,10.66-7.17" transform="translate(-852.52 -282.36)"/><ellipse class="cls-4" cx="884.67" cy="435.85" rx="0.91" ry="0.54" transform="translate(-447.59 1015.15) rotate(-87.12)"/><path class="cls-2" d="M978.8,440.81l10.11-4.64s5.1,17.37-4.39,19.53C978,457.18,978.8,440.81,978.8,440.81Z" transform="translate(-852.52 -282.36)"/><path class="cls-2" d="M1044.9,412l10.1-4.63s5.1,17.37-4.38,19.52C1044.07,428.36,1044.9,412,1044.9,412Z" transform="translate(-852.52 -282.36)"/><path class="cls-1" d="M978.91,442.39l-3.81-.19s-.82,11.53,6.51,15.16C979.62,452.81,978.91,442.39,978.91,442.39Z" transform="translate(-852.52 -282.36)"/><path class="cls-1" d="M1043.9,413.48l-3.81-.19s-.83,11.53,6.51,15.16C1044.61,423.9,1043.9,413.48,1043.9,413.48Z" transform="translate(-852.52 -282.36)"/><polygon class="cls-5" points="114.39 149.34 7.3 136.46 105.86 93.63 212.95 106.5 114.39 149.34"/><path class="cls-6" d="M935.11,429.77h0A33,33,0,0,0,916.17,421l-35.53-4a1.48,1.48,0,0,1-.39-2.83l11.39-4.7a53.8,53.8,0,0,0,22.21-17h0l-61.33,26.65Z" transform="translate(-852.52 -282.36)"/><polygon class="cls-7" points="211.48 121.42 112.92 164.26 114.03 149.32 212.95 106.5 211.48 121.42"/><polygon class="cls-8" points="112.92 164.26 5.83 151.38 7.3 136.46 114.39 149.34 112.92 164.26"/><polygon class="cls-3" points="114.39 149.34 7.3 136.46 105.86 93.63 212.95 106.5 114.39 149.34"/><polyline class="cls-3" points="7.3 136.46 5.83 151.38 112.92 164.26 211.48 121.42 212.95 106.5"/><polygon class="cls-9" points="126.02 77.3 78.18 71.16 120.29 55.17 175.32 61.19 126.02 77.3"/><polygon class="cls-9" points="124.3 134.01 75.34 127.73 78.18 71.16 127.14 77.44 124.3 134.01"/><path class="cls-6" d="M925.86,397.51l2.37-45.21,41,4.46h0a47.69,47.69,0,0,1-21.65,2.93l-6.22-.61a6.4,6.4,0,0,0-7,6l-.59,10.34a41.25,41.25,0,0,1-7.89,22.07Z" transform="translate(-852.52 -282.36)"/><polygon class="cls-10" points="173.87 111.96 124.3 134.01 127.14 77.44 176.38 61.31 173.87 111.96"/><path class="cls-6" d="M978.25,405.35l2.49-45.55,44.54-14.94h0a28.8,28.8,0,0,1-15.51,11.76l-15.55,4.88a13.63,13.63,0,0,0-9.54,12.43l-.7,16.81a24,24,0,0,1-5.73,14.61Z" transform="translate(-852.52 -282.36)"/><polyline class="cls-3" points="173.87 111.96 173.81 113.21 124.3 134.01 75.34 127.73 75.45 125.52"/><polygon class="cls-3" points="127.14 77.44 78.18 71.16 120.95 54.93 176.38 61.31 127.14 77.44"/><line class="cls-3" x1="78.18" y1="71.16" x2="75.34" y2="127.73"/><line class="cls-3" x1="127.14" y1="77.44" x2="124.3" y2="134.01"/><line class="cls-3" x1="176.38" y1="61.31" x2="173.84" y2="111.96"/><line class="cls-3" x1="114.39" y1="149.34" x2="112.92" y2="164.26"/><polyline class="cls-3" points="114.39 149.34 117.1 32.47 110.85 12.03 2.35 2 7.69 22.62 7.3 136.46"/><path class="cls-3" d="M988.91,436.17a15.73,15.73,0,0,1,1.47,9.08c-.58,5.86-3.42,10.33-6.34,10s-4.84-5.39-4.26-11.25a20.87,20.87,0,0,1,.55-3.12" transform="translate(-852.52 -282.36)"/><path class="cls-3" d="M974.56,443.35c-.57,5.86.52,11.47,4.53,12.51,0,0,7.83,3,10.65-7.17" transform="translate(-852.52 -282.36)"/><path class="cls-3" d="M1054.41,407.24c1.23,2.08,1.83,5.42,1.47,9.08-.57,5.86-3.41,10.33-6.34,10s-4.83-5.39-4.26-11.25a20.87,20.87,0,0,1,.55-3.12" transform="translate(-852.52 -282.36)"/><path class="cls-3" d="M1040.07,414.42c-.58,5.86.52,11.47,4.52,12.51,0,0,7.84,3,10.66-7.17" transform="translate(-852.52 -282.36)"/><ellipse class="cls-4" cx="1050.73" cy="417.08" rx="0.91" ry="0.54" transform="translate(-271.13 1163.18) rotate(-87.12)"/><ellipse class="cls-4" cx="985.02" cy="445.91" rx="0.91" ry="0.54" transform="translate(-362.33 1124.93) rotate(-87.12)"/><polyline class="cls-11" points="140.79 100.39 148.04 105.72 162.93 83.9"/></svg>