<svg id="Layer_1" data-name="Layer 1" xmlns="http://www.w3.org/2000/svg" xmlns:xlink="http://www.w3.org/1999/xlink" viewBox="0 0 254.19 197.93"><defs><style>.cls-1{fill:#ffc97f;}.cls-2{fill:#ffd6a4;}.cls-3{fill:#d3e5e2;}.cls-4{fill:#a4f79a;}.cls-5{fill:#a1b2af;}.cls-6{clip-path:url(#clip-path);}.cls-7{fill:#f4b978;}.cls-14,.cls-8{fill:none;stroke:#212950;stroke-linejoin:round;}.cls-8{stroke-width:4px;}.cls-9{clip-path:url(#clip-path-2);}.cls-10{fill:#f9cca0;}.cls-11{fill:#e07963;}.cls-12{fill:#fff;}.cls-13{fill:#5bd094;}.cls-14{stroke-width:2px;}</style><clipPath id="clip-path" transform="translate(-832.9 -271.63)"><polyline class="cls-1" points="1043.02 290.63 926.57 336.63 927.16 426.17 1043.02 380.4 1043.02 290.63"/></clipPath><clipPath id="clip-path-2" transform="translate(-832.9 -271.63)"><polygon class="cls-2" points="867.41 317.63 867.41 407.4 926.57 390.1 926.57 336.63 867.41 317.63"/></clipPath></defs><title>icon02</title><path class="cls-3" d="M968.13,410.44a23.77,23.77,0,0,1,.62,12.61c-2.15,10.93-9.94,19.78-17.4,19.78s-11.77-8.85-9.62-19.78c.19-.94.42-1.87.68-2.78" transform="translate(-832.9 -271.63)"/><path class="cls-3" d="M1066.55,372.32a23.65,23.65,0,0,1,.63,12.61c-2.15,10.92-9.94,19.78-17.4,19.78s-11.77-8.86-9.62-19.78c.19-.94.41-1.87.68-2.78" transform="translate(-832.9 -271.63)"/><polygon class="cls-4" points="210.12 46 210.12 28.67 232.85 36.44 210.12 46"/><polygon class="cls-4" points="235.32 65 235.21 52.22 250.53 58.34 235.32 65"/><path class="cls-5" d="M942.89,419.5l-7.65,2.79s-1.62,12.19,3,17.43,9.46,6.4,15.17,4.45-3.28-.43-5.68-2.13S937.56,438.91,942.89,419.5Z" transform="translate(-832.9 -271.63)"/><path class="cls-5" d="M1040.79,380.4l-7.64,2.79s-1.62,12.19,3,17.44,9.46,6.4,15.17,4.44-3.29-.42-5.69-2.13S1035.47,399.81,1040.79,380.4Z" transform="translate(-832.9 -271.63)"/><polyline class="cls-1" points="93.66 154.78 60.57 195.93 2 174 34.81 135.78"/><polygon class="cls-1" points="93.66 65 36.16 46 151.89 2 210.12 19 93.66 65"/><polyline class="cls-1" points="210.12 19 93.66 65 94.25 154.54 210.12 108.78 210.12 19"/><g class="cls-6"><path class="cls-7" d="M1043.45,295.22l1.49,85.48L929.82,429.81s3.38-23.12,21.47-28S965.07,369.07,998,370c15.31.41,24.15-22.2,28.59-39a107.85,107.85,0,0,1,16.87-35.78Z" transform="translate(-832.9 -271.63)"/></g><polygon class="cls-8" points="93.66 154.78 210.12 108.78 210.12 19 93.66 65 93.66 154.78"/><polygon class="cls-2" points="34.51 46 34.51 135.78 93.66 118.47 93.66 65 34.51 46"/><g class="cls-9"><path class="cls-10" d="M872.56,320.17s16.79,12.9,37,20.9-3.21,17.61-.33,27.59-8.79,23.19-16.26,27.62,34.78-11.08,34.78-11.08V336.41Z" transform="translate(-832.9 -271.63)"/></g><polygon class="cls-11" points="93.66 154.78 35.33 135.63 93.15 113 93.66 154.78"/><path class="cls-12" d="M926.57,414.74h0A40.36,40.36,0,0,0,934,391l-.21-30.84c-.07-10.73,6.15-20.32,15.5-23.93l59.34-22.74a51.15,51.15,0,0,0,23.51-18.6h0l-105.56,41.7Z" transform="translate(-832.9 -271.63)"/><polygon class="cls-8" points="34.81 135.78 93.66 154.78 93.66 65 34.81 46 34.81 135.78"/><path class="cls-12" d="M894.07,307.15l90.72-33.52,45.78,13.8-3.89.24a59.06,59.06,0,0,1-21-2.53l-9.62-3a36.15,36.15,0,0,0-23.31.66l-53.21,19.73a72.73,72.73,0,0,1-23.36,4.53Z" transform="translate(-832.9 -271.63)"/><polyline class="cls-8" points="93.66 65 210.12 19 151.89 2 34.81 46 93.66 65"/><polyline class="cls-8" points="93.66 154.78 60.57 195.93 2 174 34.81 135.78"/><line class="cls-8" x1="93.15" y1="113" x2="34.81" y2="135.78"/><polygon class="cls-13" points="235.32 65 234.83 36.41 210.12 46 210.12 108.78 252.19 92.44 252.19 58.56 235.32 65"/><polygon class="cls-8" points="235.32 65 234.83 36.41 210.12 46 210.12 108.78 252.19 92.44 252.19 58.56 235.32 65"/><line class="cls-8" x1="234.83" y1="36.41" x2="210.12" y2="28.67"/><line class="cls-8" x1="252.19" y1="58.56" x2="234.83" y2="52.22"/><path class="cls-8" d="M968.13,410.44a23.77,23.77,0,0,1,.62,12.61c-2.15,10.93-9.94,19.78-17.4,19.78s-11.77-8.85-9.62-19.78c.19-.94.42-1.87.68-2.78" transform="translate(-832.9 -271.63)"/><path class="cls-8" d="M968.51,424c-2.29,11.68-11.22,21.15-19.94,21.15S932.67,435.63,935,424a11.59,11.59,0,0,1,.25-1.17" transform="translate(-832.9 -271.63)"/><path class="cls-8" d="M1066.55,372a23.69,23.69,0,0,1,.63,12.62c-2.15,10.92-9.94,19.77-17.4,19.77s-11.77-8.85-9.62-19.77c.19-.95.41-1.88.68-2.79" transform="translate(-832.9 -271.63)"/><path class="cls-8" d="M1066.94,385.52c-2.3,11.68-11.23,21.15-19.94,21.15s-16.44-8.73-14.14-20.41c.12-.59.25-1.17.4-1.75" transform="translate(-832.9 -271.63)"/><ellipse class="cls-14" cx="954.79" cy="426.17" rx="4.48" ry="3.05" transform="translate(-594.04 916.57) rotate(-70.84)"/><ellipse class="cls-14" cx="1052.93" cy="388.17" rx="4.48" ry="3.05" transform="matrix(0.33, -0.94, 0.94, 0.33, -492.21, 983.75)"/><path class="cls-12" d="M1062.66,338.24l-14.46,6V320.66l8.32-3.22a4.37,4.37,0,0,1,5.8,4.3Z" transform="translate(-832.9 -271.63)"/></svg>