<svg id="Layer_1" data-name="Layer 1" xmlns="http://www.w3.org/2000/svg" viewBox="0 0 180.5 171.16"><defs><style>.cls-1,.cls-5{fill:none;stroke:#212950;stroke-width:4px;}.cls-1{stroke-linejoin:round;}.cls-2{fill:#ddf2da;}.cls-3{fill:#a9dbc0;}.cls-4{fill:#ffc97f;}.cls-5{stroke-miterlimit:10;}.cls-6{fill:#fea07e;}.cls-7{fill:#e07963;}.cls-8{fill:#fff;}</style></defs><title>icon01</title><path class="cls-1" d="M1132.24,432.73s-.56,9.68-8.64,10c8.08-.31,8.64,9.37,8.64,9.37s0-9.37,8.91-9.68C1132.79,443,1132.24,432.73,1132.24,432.73Z" transform="translate(-962.65 -414.34)"/><ellipse class="cls-2" cx="84.39" cy="51.07" rx="50.86" ry="47.05"/><path class="cls-3" d="M1057.38,419.56c17.91,9.25,29.72,25,29.72,42.95,0,23.51-20.31,43.33-48.08,49.55a58.52,58.52,0,0,0,6.66.4c28.84,0,52.23-21.07,52.23-47.05C1097.91,443.05,1080.59,424.34,1057.38,419.56Z" transform="translate(-962.65 -414.34)"/><polyline class="cls-4" points="43.43 85.38 34.59 98.21 56.59 108.61 65.43 95.22"/><ellipse class="cls-5" cx="79.07" cy="50.06" rx="56.19" ry="48.06"/><path class="cls-6" d="M1004.7,516.77l-34.44,56c-2.86,4.28-5.51,7.09-.94,9.45l4.16,3a16.1,16.1,0,0,0,7-6l34.76-58.49" transform="translate(-962.65 -414.34)"/><path class="cls-7" d="M1009.64,519.56l-31.32,53.49s-4.36,8.3-11.47,7.57c-3.66-.38,7.9,7.46,13.57,0s35.84-59.08,35.84-59.08Z" transform="translate(-962.65 -414.34)"/><polyline class="cls-5" points="43.43 85.38 34.59 98.21 56.59 108.61 65.43 95.22"/><path class="cls-5" d="M1000.55,514.11l-34.44,56a8.62,8.62,0,0,0,3.21,12.45h0a8.61,8.61,0,0,0,11.18-3l34.76-58.49" transform="translate(-962.65 -414.34)"/><path class="cls-8" d="M1005.93,471.53a44.25,44.25,0,0,1,0-16.39,28.58,28.58,0,0,0-3,18.64,29.19,29.19,0,0,0,13.76,19.52A43.93,43.93,0,0,1,1005.93,471.53Z" transform="translate(-962.65 -414.34)"/><path class="cls-1" d="M1125.77,474.22s-.56,9.68-8.64,10c8.08-.31,8.64,9.37,8.64,9.37s0-9.37,8.92-9.68C1126.32,484.52,1125.77,474.22,1125.77,474.22Z" transform="translate(-962.65 -414.34)"/></svg>